# xmcd
#
# Track frame offsets: 
#        150
#        16392
#        34505
#
# Disc length: 645 seconds
#
# Revision: 0
# Processed by: cddbd v1.5.2PL0 Copyright (c) Steve Scherf et al.
# Submitted via: ExactAudioCopy v0.99pb4
#
DISCID=17028303
DTITLE=Julia A. Noack - Demo Tracks
DYEAR=2006
DGENRE=Country
TTITLE0=My Love Isn't With Me Tonighjt
TTITLE1=House On The Hillside
TTITLE2=Leaving The Door Ajar
EXTD=
EXTT0=
EXTT1=
EXTT2=
PLAYORDER=
